<?xml version="1.0" standalone="no"?>
<!DOCTYPE svg PUBLIC "-//W3C//DTD SVG 20010904//EN"
 "http://www.w3.org/TR/2001/REC-SVG-20010904/DTD/svg10.dtd">
<svg version="1.0" xmlns="http://www.w3.org/2000/svg"
 width="260.000000pt" height="260.000000pt" viewBox="0 0 260.000000 260.000000"
 preserveAspectRatio="xMidYMid meet">
<metadata>
Created by potrace 1.11, written by Peter Selinger 2001-2013
</metadata>
<g transform="translate(0.000000,260.000000) scale(0.100000,-0.100000)"
fill="#000000" stroke="none">
<path d="M0 1300 l0 -1300 1300 0 1300 0 0 1300 0 1300 -1300 0 -1300 0 0
-1300z m1085 58 c92 -244 172 -449 178 -455 5 -7 22 -13 38 -13 28 0 29 -2 29
-45 l0 -45 -140 0 -140 0 0 45 c0 40 3 45 23 45 48 0 49 11 16 103 l-32 87
-201 0 -202 0 -31 -87 c-34 -92 -32 -103 15 -103 19 0 22 -5 22 -45 l0 -45
-140 0 -140 0 0 45 c0 42 2 45 28 45 15 0 32 4 37 8 6 4 66 151 134 327 68
176 146 377 173 448 l50 127 57 0 58 0 168 -442z m877 431 c145 -31 229 -126
228 -258 -1 -70 -53 -147 -124 -183 l-29 -15 38 -13 c21 -7 57 -32 81 -55 100
-101 98 -276 -5 -376 -81 -78 -102 -82 -438 -87 l-293 -3 0 45 0 45 55 6 55 7
-2 397 -3 396 -52 8 -53 9 0 44 0 44 245 0 c142 0 266 -5 297 -11z"/>
<path d="M779 1419 c-41 -111 -75 -206 -77 -211 -2 -4 66 -8 152 -8 86 0 156
2 156 5 0 12 -142 401 -149 408 -4 4 -41 -83 -82 -194z"/>
<path d="M1670 1529 l0 -161 133 4 c150 5 193 18 227 73 27 44 27 128 0 173
-34 56 -85 72 -232 72 l-128 0 0 -161z"/>
<path d="M1670 1091 l0 -181 147 0 c162 0 208 12 248 68 29 40 29 179 -1 218
-48 65 -61 69 -235 72 l-159 4 0 -181z"/>
</g>
</svg>
